<mxfile host="app.diagrams.net" modified="2024-03-09T01:20:47.063Z" agent="Mozilla/5.0 (Windows NT 10.0; Win64; x64) AppleWebKit/537.36 (KHTML, like Gecko) Chrome/122.0.0.0 Safari/537.36" etag="Hf48QL8NmiI8oZ52bZEr" version="24.0.3" type="github">
  <diagram name="P치gina-1" id="SfSEKzXnsGO-wV4Z4__S">
    <mxGraphModel dx="2261" dy="1941" grid="1" gridSize="10" guides="1" tooltips="1" connect="1" arrows="1" fold="1" page="1" pageScale="1" pageWidth="827" pageHeight="1169" math="0" shadow="0">
      <root>
        <mxCell id="0" />
        <mxCell id="1" parent="0" />
        <mxCell id="0y9qkOad_10M-_Jho3EP-1" value="Paciente" style="shape=umlActor;verticalLabelPosition=bottom;verticalAlign=top;html=1;outlineConnect=0;" parent="1" vertex="1">
          <mxGeometry x="-270" y="-220" width="30" height="60" as="geometry" />
        </mxCell>
        <mxCell id="0y9qkOad_10M-_Jho3EP-2" value="Login" style="rounded=1;whiteSpace=wrap;html=1;" parent="1" vertex="1">
          <mxGeometry y="-220" width="120" height="60" as="geometry" />
        </mxCell>
        <mxCell id="0y9qkOad_10M-_Jho3EP-3" value="" style="endArrow=none;dashed=1;html=1;dashPattern=1 3;strokeWidth=2;rounded=0;" parent="1" source="0y9qkOad_10M-_Jho3EP-7" edge="1">
          <mxGeometry width="50" height="50" relative="1" as="geometry">
            <mxPoint x="-260" y="170" as="sourcePoint" />
            <mxPoint x="-255.5" y="-140" as="targetPoint" />
          </mxGeometry>
        </mxCell>
        <mxCell id="0y9qkOad_10M-_Jho3EP-4" value="" style="endArrow=none;dashed=1;html=1;dashPattern=1 3;strokeWidth=2;rounded=0;" parent="1" edge="1">
          <mxGeometry width="50" height="50" relative="1" as="geometry">
            <mxPoint x="-60" y="170" as="sourcePoint" />
            <mxPoint x="-60" y="-140" as="targetPoint" />
            <Array as="points">
              <mxPoint x="-60" />
            </Array>
          </mxGeometry>
        </mxCell>
        <mxCell id="0y9qkOad_10M-_Jho3EP-8" value="" style="endArrow=none;dashed=1;html=1;dashPattern=1 3;strokeWidth=2;rounded=0;" parent="1" target="0y9qkOad_10M-_Jho3EP-7" edge="1">
          <mxGeometry width="50" height="50" relative="1" as="geometry">
            <mxPoint x="-260" y="170" as="sourcePoint" />
            <mxPoint x="-255.5" y="-140" as="targetPoint" />
          </mxGeometry>
        </mxCell>
        <mxCell id="0y9qkOad_10M-_Jho3EP-7" value="" style="rounded=1;whiteSpace=wrap;html=1;" parent="1" vertex="1">
          <mxGeometry x="-270" y="-20" width="30" height="30" as="geometry" />
        </mxCell>
        <mxCell id="0y9qkOad_10M-_Jho3EP-9" value="" style="rounded=1;whiteSpace=wrap;html=1;" parent="1" vertex="1">
          <mxGeometry x="-75" y="-20" width="30" height="30" as="geometry" />
        </mxCell>
        <mxCell id="0y9qkOad_10M-_Jho3EP-10" value="" style="endArrow=classic;html=1;rounded=0;exitX=1;exitY=0.25;exitDx=0;exitDy=0;entryX=0;entryY=0.25;entryDx=0;entryDy=0;" parent="1" source="0y9qkOad_10M-_Jho3EP-7" target="0y9qkOad_10M-_Jho3EP-9" edge="1">
          <mxGeometry width="50" height="50" relative="1" as="geometry">
            <mxPoint x="-120" y="40" as="sourcePoint" />
            <mxPoint x="-120" y="30" as="targetPoint" />
          </mxGeometry>
        </mxCell>
        <mxCell id="0y9qkOad_10M-_Jho3EP-11" value="Abertura de conta" style="text;html=1;align=center;verticalAlign=middle;whiteSpace=wrap;rounded=0;" parent="1" vertex="1">
          <mxGeometry x="-217" y="-37" width="110" height="30" as="geometry" />
        </mxCell>
        <mxCell id="0y9qkOad_10M-_Jho3EP-14" value="Cadastro" style="ellipse;shape=umlControl;whiteSpace=wrap;html=1;" parent="1" vertex="1">
          <mxGeometry x="-95" y="-230" width="70" height="80" as="geometry" />
        </mxCell>
        <mxCell id="yDMrtXZ_0G5Bb64znmzC-1" value="Triagem" style="rounded=1;whiteSpace=wrap;html=1;" vertex="1" parent="1">
          <mxGeometry x="130" y="-220" width="120" height="60" as="geometry" />
        </mxCell>
        <mxCell id="yDMrtXZ_0G5Bb64znmzC-2" value="Agendamento" style="rounded=1;whiteSpace=wrap;html=1;" vertex="1" parent="1">
          <mxGeometry x="260" y="-220" width="120" height="60" as="geometry" />
        </mxCell>
        <mxCell id="yDMrtXZ_0G5Bb64znmzC-3" value="Chat_Psico" style="rounded=1;whiteSpace=wrap;html=1;" vertex="1" parent="1">
          <mxGeometry x="260" y="-110" width="120" height="60" as="geometry" />
        </mxCell>
        <mxCell id="yDMrtXZ_0G5Bb64znmzC-4" value="Consulta" style="rounded=1;whiteSpace=wrap;html=1;" vertex="1" parent="1">
          <mxGeometry x="390" y="-220" width="120" height="60" as="geometry" />
        </mxCell>
        <mxCell id="yDMrtXZ_0G5Bb64znmzC-5" value="Diagn칩stico" style="rounded=1;whiteSpace=wrap;html=1;" vertex="1" parent="1">
          <mxGeometry x="520" y="-220" width="120" height="60" as="geometry" />
        </mxCell>
        <mxCell id="yDMrtXZ_0G5Bb64znmzC-7" value="Contato_Site(opicional)" style="rounded=1;whiteSpace=wrap;html=1;" vertex="1" parent="1">
          <mxGeometry x="650" y="-220" width="150" height="60" as="geometry" />
        </mxCell>
        <mxCell id="yDMrtXZ_0G5Bb64znmzC-8" value="Psic칩logo" style="shape=umlActor;verticalLabelPosition=bottom;verticalAlign=top;html=1;outlineConnect=0;" vertex="1" parent="1">
          <mxGeometry x="-270" y="270" width="30" height="60" as="geometry" />
        </mxCell>
        <mxCell id="yDMrtXZ_0G5Bb64znmzC-9" value="Cadastro" style="ellipse;shape=umlControl;whiteSpace=wrap;html=1;" vertex="1" parent="1">
          <mxGeometry x="-95" y="260" width="70" height="80" as="geometry" />
        </mxCell>
        <mxCell id="yDMrtXZ_0G5Bb64znmzC-10" value="Login" style="rounded=1;whiteSpace=wrap;html=1;" vertex="1" parent="1">
          <mxGeometry x="40" y="270" width="120" height="60" as="geometry" />
        </mxCell>
        <mxCell id="yDMrtXZ_0G5Bb64znmzC-11" value="Mensagem" style="rounded=1;whiteSpace=wrap;html=1;" vertex="1" parent="1">
          <mxGeometry x="210" y="270" width="120" height="60" as="geometry" />
        </mxCell>
        <mxCell id="yDMrtXZ_0G5Bb64znmzC-12" value="Consulta" style="rounded=1;whiteSpace=wrap;html=1;" vertex="1" parent="1">
          <mxGeometry x="380" y="270" width="120" height="60" as="geometry" />
        </mxCell>
        <mxCell id="yDMrtXZ_0G5Bb64znmzC-13" value="Diagn칩stico" style="rounded=1;whiteSpace=wrap;html=1;" vertex="1" parent="1">
          <mxGeometry x="540" y="270" width="120" height="60" as="geometry" />
        </mxCell>
      </root>
    </mxGraphModel>
  </diagram>
</mxfile>
